<?xml version="1.0" encoding="utf-8"?>
<!-- Generator: Adobe Illustrator 22.1.0, SVG Export Plug-In . SVG Version: 6.00 Build 0)  -->
<svg version="1.1" id="Слой_1" xmlns="http://www.w3.org/2000/svg" xmlns:xlink="http://www.w3.org/1999/xlink" x="0px" y="0px"
	 viewBox="0 0 473.6 182.5" style="enable-background:new 0 0 473.6 182.5;" xml:space="preserve">
<style type="text/css">
	.st0{fill-rule:evenodd;clip-rule:evenodd;fill:#F2CE00;}
	.st1{fill-rule:evenodd;clip-rule:evenodd;}
</style>
<g>
	<path class="st0" d="M24.1,160.8h10l-4.4-12.3c-0.1-0.2-0.2-0.4-0.3-0.7c-0.1-0.3-0.2-0.4-0.3-0.4c-0.1,0-0.2,0.1-0.3,0.4
		c-0.1,0.3-0.2,0.5-0.3,0.7L24.1,160.8L24.1,160.8z M165.7,181.9c-0.9,0-1.9-0.1-2.8-0.3c-1-0.2-1.8-0.6-2.4-1.2
		c-0.6-0.5-1.1-1.1-1.5-1.9c-0.4-0.8-0.7-1.8-0.7-2.8v-42.3h15.7v33.5c0,0.3,0,0.7,0.1,1.1c0.1,0.5,0.3,0.9,0.7,1.2
		c0.3,0.3,0.7,0.5,1.2,0.5c0.5,0.1,0.9,0.1,1.3,0.1h25.2v12.1H165.7L165.7,181.9z M118.5,181.9c-1,0-2-0.1-3-0.2
		c-1-0.2-2-0.6-2.9-1.4c-1.1-0.9-1.8-1.9-1.9-2.9c-0.2-1-0.3-2.1-0.3-3.2v-33.3c0-0.9,0.1-1.9,0.3-2.8c0.2-1,0.8-1.9,1.7-2.7
		c0.9-0.8,1.9-1.4,3-1.6c1.1-0.2,2-0.3,2.9-0.3h34.9v11.8h-24c-0.5,0-0.9,0.1-1.4,0.2c-0.4,0.1-0.8,0.3-1.1,0.5
		c-0.4,0.3-0.6,0.7-0.7,1.2c-0.1,0.5-0.1,0.9-0.1,1.2v3.7h26.5v10.5H126v5.3c0,0.5,0.1,0.9,0.2,1.2c0.1,0.3,0.3,0.5,0.5,0.6
		c0.4,0.4,0.8,0.6,1.4,0.6c0.6,0,1.1,0,1.6,0h23.7v11.8H118.5L118.5,181.9z M90.2,181.9l-8.8-13.7l-8.8,13.7H58.1h-4.2H41.6l-3.8-10
		H20.3l-3.8,10H0l18-43.2c0.4-0.9,0.8-1.7,1.3-2.4c0.5-0.7,1.2-1.4,2-1.9c0.8-0.5,1.9-0.9,3.1-1.2c1.2-0.3,2.8-0.4,4.7-0.4
		c1.2,0,2.3,0.1,3.4,0.2c1.1,0.1,2.1,0.4,3,0.8c0.9,0.4,1.8,1,2.6,1.8c0.8,0.8,1.5,1.8,2,3.2l16.5,39.6l15.7-21l-17.8-23.9h18.7
		l8.2,13l8.2-13h18.7l-17.8,23.9l18.4,24.6H90.2L90.2,181.9z"/>
	<path class="st1" d="M221.8,166.2c0,0.5,0,1,0.1,1.5c0,0.5,0.3,0.9,0.6,1.3c0.4,0.4,0.9,0.7,1.5,0.7c0.6,0.1,0.9,0.1,1,0.1h2.1
		c1.8,0,3.5-0.2,5.1-0.5c1.7-0.3,3-1.1,4-2.3c0.2-0.2,0.4-0.5,0.6-0.9c0.2-0.4,0.5-1,0.7-1.7c0.2-0.7,0.4-1.7,0.6-2.9
		c0.2-1.2,0.2-2.6,0.2-4.3c0-2.7-0.3-4.8-0.9-6.4c-0.6-1.6-1.4-2.8-2.3-3.7c-1.1-0.9-2.3-1.5-3.8-1.7c-1.5-0.2-3.1-0.3-5-0.3h-1.2
		c-0.4,0-0.8,0-1.2,0.1c-0.4,0.1-0.8,0.2-1.2,0.5c-0.5,0.4-0.7,0.8-0.8,1.4c-0.1,0.5-0.1,1-0.1,1.4V166.2L221.8,166.2z M206.1,133.4
		h7.4h0.1h2.5h19.7c2.7,0,5.4,0.5,8,1.5c2.6,1,4.8,2.4,6.5,4.4c1.7,2,2.9,4.4,3.5,7.4c0.6,2.9,0.9,6.5,0.9,10.7
		c0,4.8-0.3,8.6-0.9,11.5c-0.6,2.9-1.6,5.2-2.8,6.9c-1.2,1.7-3,3.1-5.3,4.3c-2.4,1.2-5.2,1.8-8.6,1.8H216h-1.9h0h-7.9v-7.2v-0.1
		v-32.6V142V133.4L206.1,133.4z M428.2,169.8h26.9c1.2,0,1.9-0.2,2.2-0.5c0.3-0.3,0.5-0.7,0.5-1c0-0.8-0.3-1.3-1-1.6
		c-0.6-0.3-1.4-0.6-2.1-0.8l-18.8-5.3c-1.4-0.4-2.6-0.9-3.5-1.6c-0.9-0.7-1.6-1.4-2.1-2c-1.2-1.5-1.9-3.3-2.2-5.2
		c-0.3-1.9-0.5-3.8-0.5-5.6c0-1.5,0.2-3.2,0.5-4.9c0.3-1.8,1.2-3.4,2.6-4.8c0.8-0.8,1.8-1.5,3.2-2.1c1.3-0.6,3-0.9,5.1-0.9h32v12.1
		h-24.7c-0.9,0-1.5,0-1.9,0.1c-0.3,0-0.6,0.1-0.7,0.2c-0.5,0.3-0.8,0.7-0.8,1.3c0,0.8,0.5,1.4,1.4,1.7c0.9,0.4,1.8,0.7,2.7,0.9
		l16.4,4.4c1.1,0.3,2.2,0.7,3.5,1.2c1.3,0.6,2.3,1.3,3.2,2.1c0.7,0.7,1.3,1.6,1.8,2.5c0.5,0.9,0.8,1.9,1,2.9c0.2,1,0.3,2,0.4,2.9
		c0.1,1,0.1,1.9,0.1,2.7c0,1.4-0.1,3-0.3,4.8s-0.9,3.4-2,4.9c-0.7,0.9-1.4,1.6-2.2,2.1c-0.8,0.5-1.6,0.9-2.5,1.1
		c-0.9,0.2-1.7,0.4-2.6,0.4c-0.9,0-1.7,0.1-2.5,0.1h-33.3V169.8L428.2,169.8z M375.1,142.7c0-1.1,0.1-2.3,0.3-3.6
		c0.2-1.3,0.7-2.4,1.6-3.4c0.9-1,2-1.7,3.3-1.9c1.2-0.3,2.3-0.4,3.3-0.4h26.4c0.7,0,1.6,0,2.6,0.1c1,0,2.1,0.2,3.1,0.5
		c1.1,0.3,2.1,0.8,3.1,1.4c1,0.6,1.9,1.5,2.7,2.7c1.1,1.6,1.7,3.4,2,5.3c0.3,2,0.5,3.9,0.5,5.8c0,0.6,0,1.3,0,2.3
		c0,0.9-0.1,2-0.2,3.1c-0.1,1.1-0.3,2.2-0.6,3.4c-0.2,1.2-0.6,2.2-1,3.2c-0.9,2.2-2.2,3.7-3.8,4.6c-1.6,0.9-3.3,1.4-5.2,1.4h-2.1
		v0.3l13.9,14.5h-18.9l-9.4-12.6c-0.8-1.1-1.5-2.1-2.3-3.2c-0.7-1.1-1.1-2.2-1.1-3.4v-1c0-1.6,0.7-2.9,2-4c1.3-1,3-1.5,5-1.5h2.5
		c0.7,0,1.5-0.1,2.3-0.2c0.8-0.2,1.5-0.6,2.1-1.2c0.4-0.5,0.6-1.1,0.8-1.9c0.2-0.8,0.2-1.5,0.2-2.1c0-1.3-0.2-2.3-0.5-2.9
		c-0.3-0.6-0.5-1-0.7-1.2c-0.6-0.6-1.3-1-2.1-1.1c-0.8-0.1-1.5-0.1-2.3-0.1h-8.7c-0.5,0-0.9,0-1.3,0.1c-0.4,0.1-0.8,0.3-1.1,0.7
		c-0.5,0.5-0.8,0.9-0.8,1.4c0,0.5-0.1,1-0.1,1.6v32.6h-15.7V142.7L375.1,142.7z M332.2,157.6c0,1.9,0.1,3.7,0.3,5.2
		c0.2,1.5,0.7,2.9,1.5,4.1c0.5,0.8,1.1,1.4,1.7,1.9c0.6,0.5,1.3,0.8,2,1.1s1.5,0.4,2.4,0.5c0.9,0.1,1.8,0.1,2.7,0.1c1,0,2,0,2.8-0.1
		c0.9-0.1,1.6-0.2,2.3-0.5c0.7-0.2,1.3-0.6,1.9-1.1c0.6-0.5,1.2-1.1,1.7-1.9c0.9-1.3,1.4-2.7,1.6-4.1c0.2-1.5,0.2-3.2,0.2-5.1
		c0-1.1,0-2,0-2.8c0-0.8-0.1-1.6-0.2-2.3c-0.1-0.7-0.3-1.4-0.5-2c-0.3-0.6-0.6-1.3-1.1-2c-1.1-1.6-2.3-2.6-3.7-2.9
		c-1.4-0.4-3.1-0.6-5.1-0.6c-1,0-1.9,0-2.8,0.1c-0.8,0.1-1.6,0.2-2.4,0.5c-0.7,0.3-1.4,0.6-2,1.1c-0.6,0.5-1.2,1.1-1.7,1.9
		c-0.9,1.3-1.4,2.6-1.6,4.1C332.3,153.9,332.2,155.6,332.2,157.6L332.2,157.6z M342.8,132.8c1.8,0,3.7,0,5.7,0.1
		c1.9,0.1,3.8,0.3,5.7,0.6c1.9,0.3,3.7,0.8,5.3,1.5c1.7,0.7,3.2,1.6,4.5,2.8c1.3,1.2,2.3,2.6,3,4.2c0.7,1.6,1.3,3.3,1.7,5.1
		c0.4,1.8,0.6,3.5,0.7,5.4c0.1,1.8,0.1,3.5,0.1,5.2c0,1.6,0,3.3-0.1,5.1c-0.1,1.8-0.3,3.6-0.7,5.3c-0.4,1.8-0.9,3.4-1.7,5.1
		c-0.7,1.6-1.8,3-3,4.3c-1.3,1.2-2.8,2.1-4.5,2.8c-1.7,0.7-3.5,1.2-5.3,1.5c-1.9,0.3-3.8,0.5-5.8,0.6c-2,0.1-3.8,0.1-5.6,0.1
		c-1.8,0-3.7,0-5.6-0.1c-2-0.1-3.9-0.3-5.8-0.6c-1.9-0.3-3.7-0.8-5.3-1.5c-1.7-0.7-3.2-1.6-4.5-2.8c-1.3-1.2-2.4-2.7-3.1-4.3
		c-0.7-1.6-1.3-3.3-1.6-5.1c-0.4-1.8-0.6-3.5-0.7-5.3s-0.1-3.5-0.1-5.1c0-1.6,0-3.3,0.1-5.2c0.1-1.8,0.3-3.6,0.7-5.4
		c0.4-1.8,0.9-3.4,1.6-5.1c0.7-1.6,1.7-3,3.1-4.2c1.3-1.2,2.8-2.1,4.5-2.8c1.7-0.7,3.5-1.2,5.3-1.5c1.9-0.3,3.8-0.5,5.7-0.6
		C339.1,132.9,341,132.8,342.8,132.8L342.8,132.8z M274.7,157.6c0,1.9,0.1,3.7,0.3,5.2c0.2,1.5,0.7,2.9,1.5,4.1
		c0.5,0.8,1.1,1.4,1.7,1.9c0.6,0.5,1.3,0.8,2,1.1c0.7,0.2,1.5,0.4,2.4,0.5c0.9,0.1,1.8,0.1,2.7,0.1c1,0,2,0,2.8-0.1
		c0.9-0.1,1.6-0.2,2.3-0.5c0.7-0.2,1.3-0.6,1.9-1.1c0.6-0.5,1.2-1.1,1.7-1.9c0.9-1.3,1.4-2.7,1.6-4.1c0.2-1.5,0.2-3.2,0.2-5.1
		c0-1.1,0-2,0-2.8c0-0.8-0.1-1.6-0.2-2.3c-0.1-0.7-0.3-1.4-0.5-2c-0.3-0.6-0.6-1.3-1.1-2c-1.1-1.6-2.3-2.6-3.7-2.9
		c-1.4-0.4-3.1-0.6-5.1-0.6c-1,0-1.9,0-2.8,0.1c-0.8,0.1-1.6,0.2-2.4,0.5c-0.7,0.3-1.4,0.6-2,1.1c-0.6,0.5-1.2,1.1-1.7,1.9
		c-0.9,1.3-1.4,2.6-1.6,4.1C274.8,153.9,274.7,155.6,274.7,157.6L274.7,157.6z M285.3,132.8c1.8,0,3.7,0,5.7,0.1
		c1.9,0.1,3.8,0.3,5.7,0.6c1.9,0.3,3.7,0.8,5.3,1.5c1.7,0.7,3.2,1.6,4.5,2.8c1.3,1.2,2.3,2.6,3,4.2c0.7,1.6,1.3,3.3,1.7,5.1
		c0.4,1.8,0.6,3.5,0.7,5.4c0.1,1.8,0.1,3.5,0.1,5.2c0,1.6,0,3.3-0.1,5.1c-0.1,1.8-0.3,3.6-0.7,5.3c-0.4,1.8-0.9,3.4-1.7,5.1
		c-0.7,1.6-1.8,3-3,4.3c-1.3,1.2-2.8,2.1-4.5,2.8c-1.7,0.7-3.5,1.2-5.3,1.5c-1.9,0.3-3.8,0.5-5.8,0.6c-2,0.1-3.8,0.1-5.6,0.1
		c-1.8,0-3.7,0-5.6-0.1c-2-0.1-3.9-0.3-5.8-0.6c-1.9-0.3-3.7-0.8-5.3-1.5c-1.7-0.7-3.2-1.6-4.5-2.8c-1.3-1.2-2.4-2.7-3.1-4.3
		c-0.7-1.6-1.3-3.3-1.6-5.1c-0.4-1.8-0.6-3.5-0.7-5.3c-0.1-1.8-0.1-3.5-0.1-5.1c0-1.6,0-3.3,0.1-5.2c0.1-1.8,0.3-3.6,0.7-5.4
		c0.4-1.8,0.9-3.4,1.6-5.1s1.7-3,3.1-4.2c1.3-1.2,2.8-2.1,4.5-2.8c1.7-0.7,3.5-1.2,5.3-1.5c1.9-0.3,3.8-0.5,5.7-0.6
		C281.6,132.9,283.5,132.8,285.3,132.8L285.3,132.8z"/>
	<path class="st0" d="M242.8,0.2h47.5c33.3,0,60.5,27.2,60.5,60.5c0,33.3-27.2,60.5-60.5,60.5h-45.9l-14-21.6h59.9
		c21.4,0,39-17.5,39-39c0-21.4-17.5-39-39-39H257l37.7,57.4h-28.1l-0.4-0.6l-13.8-21L214.7,0.2L242.8,0.2L242.8,0.2L242.8,0.2z
		 M184.7,28.6l43.2,65.1h39.6l-43.2-65.1H184.7L184.7,28.6z M237,55.9c1.9,0,3.4,1.5,3.4,3.4c0,1.9-1.5,3.4-3.4,3.4
		c-1.9,0-3.4-1.5-3.4-3.4C233.6,57.4,235.1,55.9,237,55.9L237,55.9z"/>
	<path class="st1" d="M147.3,93.7h40.3l17.3,27.6h31.4l-65-99.7h46.6L203.8,0h-27.6h-18.9h-1.7h-8.2h-1.6H145h-22.3v121.3h24.6V93.7
		L147.3,93.7z M147.3,29.3l27.5,43.9h-27.5V29.3L147.3,29.3z"/>
</g>
</svg>
